<svg width="280" height="103" viewBox="0 0 280 103" fill="none" xmlns="http://www.w3.org/2000/svg">
<path d="M149.744 24.104H154.016L166.064 35.24L154.016 46.376H149.744L161.84 35.24L149.744 24.104Z" fill="#E9A445"/>
<path d="M148.837 14.2593L124.721 47.6999L121.716 46.4885L145.799 13.0344L148.837 14.2593Z" fill="#E9A445"/>
<path d="M109.456 46.376L97.408 35.24L109.456 24.104H113.728L101.632 35.24L113.728 46.376H109.456Z" fill="#E9A445"/>
<path d="M172.896 65.04C172.896 63.2053 173.237 61.5947 173.92 60.208C174.624 58.8213 175.573 57.7547 176.768 57.008C177.963 56.2613 179.296 55.888 180.768 55.888C181.941 55.888 183.008 56.1333 183.968 56.624C184.949 57.1147 185.717 57.776 186.272 58.608V50.32H191.744V74H186.272V71.44C185.76 72.2933 185.024 72.976 184.064 73.488C183.125 74 182.027 74.256 180.768 74.256C179.296 74.256 177.963 73.8827 176.768 73.136C175.573 72.368 174.624 71.2907 173.92 69.904C173.237 68.496 172.896 66.8747 172.896 65.04ZM186.272 65.072C186.272 63.7067 185.888 62.6293 185.12 61.84C184.373 61.0507 183.456 60.656 182.368 60.656C181.28 60.656 180.352 61.0507 179.584 61.84C178.837 62.608 178.464 63.6747 178.464 65.04C178.464 66.4053 178.837 67.4933 179.584 68.304C180.352 69.0933 181.28 69.488 182.368 69.488C183.456 69.488 184.373 69.0933 185.12 68.304C185.888 67.5147 186.272 66.4373 186.272 65.072ZM198.455 54.288C197.495 54.288 196.705 54.0107 196.087 53.456C195.489 52.88 195.191 52.176 195.191 51.344C195.191 50.4907 195.489 49.7867 196.087 49.232C196.705 48.656 197.495 48.368 198.455 48.368C199.393 48.368 200.161 48.656 200.759 49.232C201.377 49.7867 201.687 50.4907 201.687 51.344C201.687 52.176 201.377 52.88 200.759 53.456C200.161 54.0107 199.393 54.288 198.455 54.288ZM201.175 56.144V74H195.703V56.144H201.175ZM211.924 55.888C213.183 55.888 214.282 56.144 215.22 56.656C216.18 57.168 216.916 57.84 217.428 58.672V56.144H222.9V73.968C222.9 75.6107 222.57 77.0933 221.908 78.416C221.268 79.76 220.276 80.8267 218.932 81.616C217.61 82.4053 215.956 82.8 213.972 82.8C211.327 82.8 209.183 82.1707 207.54 80.912C205.898 79.6747 204.959 77.9893 204.724 75.856H210.132C210.303 76.5387 210.708 77.072 211.348 77.456C211.988 77.8613 212.778 78.064 213.716 78.064C214.847 78.064 215.743 77.7333 216.404 77.072C217.087 76.432 217.428 75.3973 217.428 73.968V71.44C216.895 72.272 216.159 72.9547 215.22 73.488C214.282 74 213.183 74.256 211.924 74.256C210.452 74.256 209.119 73.8827 207.924 73.136C206.73 72.368 205.78 71.2907 205.076 69.904C204.394 68.496 204.052 66.8747 204.052 65.04C204.052 63.2053 204.394 61.5947 205.076 60.208C205.78 58.8213 206.73 57.7547 207.924 57.008C209.119 56.2613 210.452 55.888 211.924 55.888ZM217.428 65.072C217.428 63.7067 217.044 62.6293 216.276 61.84C215.53 61.0507 214.612 60.656 213.524 60.656C212.436 60.656 211.508 61.0507 210.74 61.84C209.994 62.608 209.62 63.6747 209.62 65.04C209.62 66.4053 209.994 67.4933 210.74 68.304C211.508 69.0933 212.436 69.488 213.524 69.488C214.612 69.488 215.53 69.0933 216.276 68.304C217.044 67.5147 217.428 66.4373 217.428 65.072ZM229.611 54.288C228.651 54.288 227.862 54.0107 227.243 53.456C226.646 52.88 226.347 52.176 226.347 51.344C226.347 50.4907 226.646 49.7867 227.243 49.232C227.862 48.656 228.651 48.368 229.611 48.368C230.55 48.368 231.318 48.656 231.915 49.232C232.534 49.7867 232.843 50.4907 232.843 51.344C232.843 52.176 232.534 52.88 231.915 53.456C231.318 54.0107 230.55 54.288 229.611 54.288ZM232.331 56.144V74H226.859V56.144H232.331ZM246.249 69.36V74H243.465C241.481 74 239.934 73.52 238.825 72.56C237.715 71.5787 237.161 69.9893 237.161 67.792V60.688H234.985V56.144H237.161V51.792H242.633V56.144H246.217V60.688H242.633V67.856C242.633 68.3893 242.761 68.7733 243.017 69.008C243.273 69.2427 243.699 69.36 244.297 69.36H246.249ZM248.209 65.04C248.209 63.2053 248.55 61.5947 249.233 60.208C249.937 58.8213 250.886 57.7547 252.081 57.008C253.275 56.2613 254.609 55.888 256.081 55.888C257.339 55.888 258.438 56.144 259.377 56.656C260.337 57.168 261.073 57.84 261.585 58.672V56.144H267.057V74H261.585V71.472C261.051 72.304 260.305 72.976 259.345 73.488C258.406 74 257.307 74.256 256.049 74.256C254.598 74.256 253.275 73.8827 252.081 73.136C250.886 72.368 249.937 71.2907 249.233 69.904C248.55 68.496 248.209 66.8747 248.209 65.04ZM261.585 65.072C261.585 63.7067 261.201 62.6293 260.433 61.84C259.686 61.0507 258.769 60.656 257.681 60.656C256.593 60.656 255.665 61.0507 254.897 61.84C254.15 62.608 253.777 63.6747 253.777 65.04C253.777 66.4053 254.15 67.4933 254.897 68.304C255.665 69.0933 256.593 69.488 257.681 69.488C258.769 69.488 259.686 69.0933 260.433 68.304C261.201 67.5147 261.585 66.4373 261.585 65.072ZM276.487 50.32V74H271.015V50.32H276.487Z" fill="#E9A445"/>
<path d="M0.896 65.04C0.896 63.2053 1.23733 61.5947 1.92 60.208C2.624 58.8213 3.57333 57.7547 4.768 57.008C5.96267 56.2613 7.296 55.888 8.768 55.888C9.94133 55.888 11.008 56.1333 11.968 56.624C12.9493 57.1147 13.7173 57.776 14.272 58.608V50.32H19.744V74H14.272V71.44C13.76 72.2933 13.024 72.976 12.064 73.488C11.1253 74 10.0267 74.256 8.768 74.256C7.296 74.256 5.96267 73.8827 4.768 73.136C3.57333 72.368 2.624 71.2907 1.92 69.904C1.23733 68.496 0.896 66.8747 0.896 65.04ZM14.272 65.072C14.272 63.7067 13.888 62.6293 13.12 61.84C12.3733 61.0507 11.456 60.656 10.368 60.656C9.28 60.656 8.352 61.0507 7.584 61.84C6.83733 62.608 6.464 63.6747 6.464 65.04C6.464 66.4053 6.83733 67.4933 7.584 68.304C8.352 69.0933 9.28 69.488 10.368 69.488C11.456 69.488 12.3733 69.0933 13.12 68.304C13.888 67.5147 14.272 66.4373 14.272 65.072ZM40.5347 64.784C40.5347 65.296 40.5028 65.8293 40.4388 66.384H28.0548C28.1401 67.4933 28.4921 68.3467 29.1108 68.944C29.7508 69.52 30.5294 69.808 31.4468 69.808C32.8121 69.808 33.7614 69.232 34.2948 68.08H40.1188C39.8201 69.2533 39.2761 70.3093 38.4868 71.248C37.7188 72.1867 36.7481 72.9227 35.5748 73.456C34.4014 73.9893 33.0894 74.256 31.6388 74.256C29.8894 74.256 28.3321 73.8827 26.9668 73.136C25.6014 72.3893 24.5348 71.3227 23.7668 69.936C22.9988 68.5493 22.6148 66.928 22.6148 65.072C22.6148 63.216 22.9881 61.5947 23.7348 60.208C24.5028 58.8213 25.5694 57.7547 26.9348 57.008C28.3001 56.2613 29.8681 55.888 31.6388 55.888C33.3668 55.888 34.9028 56.2507 36.2468 56.976C37.5908 57.7013 38.6361 58.736 39.3828 60.08C40.1508 61.424 40.5347 62.992 40.5347 64.784ZM34.9348 63.344C34.9348 62.4053 34.6148 61.6587 33.9748 61.104C33.3348 60.5493 32.5348 60.272 31.5748 60.272C30.6574 60.272 29.8788 60.5387 29.2388 61.072C28.6201 61.6053 28.2361 62.3627 28.0868 63.344H34.9348ZM51.4535 68.88L55.3255 56.144H61.1495L54.8135 74H48.0615L41.7255 56.144H47.5815L51.4535 68.88ZM86.2368 55.952C88.4554 55.952 90.2154 56.624 91.5168 57.968C92.8394 59.312 93.5008 61.1787 93.5008 63.568V74H88.0608V64.304C88.0608 63.152 87.7514 62.2667 87.1328 61.648C86.5354 61.008 85.7034 60.688 84.6368 60.688C83.5701 60.688 82.7274 61.008 82.1088 61.648C81.5114 62.2667 81.2128 63.152 81.2128 64.304V74H75.7728V64.304C75.7728 63.152 75.4634 62.2667 74.8448 61.648C74.2474 61.008 73.4154 60.688 72.3488 60.688C71.2821 60.688 70.4394 61.008 69.8208 61.648C69.2234 62.2667 68.9248 63.152 68.9248 64.304V74H63.4528V56.144H68.9248V58.384C69.4794 57.6373 70.2048 57.0507 71.1008 56.624C71.9968 56.176 73.0101 55.952 74.1408 55.952C75.4848 55.952 76.6794 56.24 77.7248 56.816C78.7914 57.392 79.6234 58.2133 80.2208 59.28C80.8394 58.2987 81.6821 57.4987 82.7488 56.88C83.8154 56.2613 84.9781 55.952 86.2368 55.952ZM96.2398 65.04C96.2398 63.2053 96.5811 61.5947 97.2638 60.208C97.9678 58.8213 98.9171 57.7547 100.112 57.008C101.306 56.2613 102.64 55.888 104.112 55.888C105.37 55.888 106.469 56.144 107.408 56.656C108.368 57.168 109.104 57.84 109.616 58.672V56.144H115.088V74H109.616V71.472C109.082 72.304 108.336 72.976 107.376 73.488C106.437 74 105.338 74.256 104.08 74.256C102.629 74.256 101.306 73.8827 100.112 73.136C98.9171 72.368 97.9678 71.2907 97.2638 69.904C96.5811 68.496 96.2398 66.8747 96.2398 65.04ZM109.616 65.072C109.616 63.7067 109.232 62.6293 108.464 61.84C107.717 61.0507 106.8 60.656 105.712 60.656C104.624 60.656 103.696 61.0507 102.928 61.84C102.181 62.608 101.808 63.6747 101.808 65.04C101.808 66.4053 102.181 67.4933 102.928 68.304C103.696 69.0933 104.624 69.488 105.712 69.488C106.8 69.488 107.717 69.0933 108.464 68.304C109.232 67.5147 109.616 66.4373 109.616 65.072ZM129.927 55.952C132.017 55.952 133.681 56.6347 134.919 58C136.177 59.344 136.807 61.2 136.807 63.568V74H131.367V64.304C131.367 63.1093 131.057 62.1813 130.439 61.52C129.82 60.8587 128.988 60.528 127.943 60.528C126.897 60.528 126.065 60.8587 125.447 61.52C124.828 62.1813 124.519 63.1093 124.519 64.304V74H119.047V56.144H124.519V58.512C125.073 57.7227 125.82 57.104 126.759 56.656C127.697 56.1867 128.753 55.952 129.927 55.952ZM143.361 54.288C142.401 54.288 141.612 54.0107 140.993 53.456C140.396 52.88 140.097 52.176 140.097 51.344C140.097 50.4907 140.396 49.7867 140.993 49.232C141.612 48.656 142.401 48.368 143.361 48.368C144.3 48.368 145.068 48.656 145.665 49.232C146.284 49.7867 146.593 50.4907 146.593 51.344C146.593 52.176 146.284 52.88 145.665 53.456C145.068 54.0107 144.3 54.288 143.361 54.288ZM146.081 56.144V74H140.609V56.144H146.081ZM148.959 65.04C148.959 63.2053 149.3 61.5947 149.983 60.208C150.687 58.8213 151.636 57.7547 152.831 57.008C154.025 56.2613 155.359 55.888 156.831 55.888C158.089 55.888 159.188 56.144 160.127 56.656C161.087 57.168 161.823 57.84 162.335 58.672V56.144H167.807V74H162.335V71.472C161.801 72.304 161.055 72.976 160.095 73.488C159.156 74 158.057 74.256 156.799 74.256C155.348 74.256 154.025 73.8827 152.831 73.136C151.636 72.368 150.687 71.2907 149.983 69.904C149.3 68.496 148.959 66.8747 148.959 65.04ZM162.335 65.072C162.335 63.7067 161.951 62.6293 161.183 61.84C160.436 61.0507 159.519 60.656 158.431 60.656C157.343 60.656 156.415 61.0507 155.647 61.84C154.9 62.608 154.527 63.6747 154.527 65.04C154.527 66.4053 154.9 67.4933 155.647 68.304C156.415 69.0933 157.343 69.488 158.431 69.488C159.519 69.488 160.436 69.0933 161.183 68.304C161.951 67.5147 162.335 66.4373 162.335 65.072Z" fill="#677279"/>
<path d="M42.636 85.448V92H41.796V90.848C41.604 91.256 41.308 91.568 40.908 91.784C40.508 92 40.06 92.108 39.564 92.108C38.78 92.108 38.14 91.868 37.644 91.388C37.148 90.9 36.9 90.196 36.9 89.276V85.448H37.728V89.18C37.728 89.892 37.904 90.436 38.256 90.812C38.616 91.188 39.104 91.376 39.72 91.376C40.352 91.376 40.856 91.176 41.232 90.776C41.608 90.376 41.796 89.788 41.796 89.012V85.448H42.636ZM52.3538 85.328C53.1218 85.328 53.7458 85.572 54.2258 86.06C54.7138 86.54 54.9578 87.24 54.9578 88.16V92H54.1298V88.256C54.1298 87.544 53.9578 87 53.6138 86.624C53.2698 86.248 52.8018 86.06 52.2098 86.06C51.5938 86.06 51.1018 86.264 50.7338 86.672C50.3658 87.08 50.1818 87.672 50.1818 88.448V92H49.3538V88.256C49.3538 87.544 49.1818 87 48.8378 86.624C48.4938 86.248 48.0218 86.06 47.4218 86.06C46.8058 86.06 46.3138 86.264 45.9458 86.672C45.5778 87.08 45.3938 87.672 45.3938 88.448V92H44.5538V85.448H45.3938V86.576C45.6018 86.168 45.8978 85.86 46.2818 85.652C46.6658 85.436 47.0938 85.328 47.5658 85.328C48.1338 85.328 48.6298 85.464 49.0538 85.736C49.4858 86.008 49.7978 86.408 49.9898 86.936C50.1658 86.416 50.4658 86.02 50.8898 85.748C51.3218 85.468 51.8098 85.328 52.3538 85.328ZM56.4393 88.712C56.4393 88.04 56.5713 87.452 56.8353 86.948C57.1073 86.436 57.4793 86.044 57.9513 85.772C58.4313 85.492 58.9713 85.352 59.5713 85.352C60.1953 85.352 60.7313 85.496 61.1793 85.784C61.6353 86.072 61.9633 86.44 62.1633 86.888V85.448H63.0033V92H62.1633V90.548C61.9553 90.996 61.6233 91.368 61.1673 91.664C60.7193 91.952 60.1833 92.096 59.5593 92.096C58.9673 92.096 58.4313 91.956 57.9513 91.676C57.4793 91.396 57.1073 91 56.8353 90.488C56.5713 89.976 56.4393 89.384 56.4393 88.712ZM62.1633 88.724C62.1633 88.196 62.0553 87.732 61.8393 87.332C61.6233 86.932 61.3273 86.624 60.9513 86.408C60.5833 86.192 60.1753 86.084 59.7273 86.084C59.2633 86.084 58.8473 86.188 58.4793 86.396C58.1113 86.604 57.8193 86.908 57.6033 87.308C57.3953 87.7 57.2913 88.168 57.2913 88.712C57.2913 89.248 57.3953 89.72 57.6033 90.128C57.8193 90.528 58.1113 90.836 58.4793 91.052C58.8473 91.26 59.2633 91.364 59.7273 91.364C60.1753 91.364 60.5833 91.256 60.9513 91.04C61.3273 90.824 61.6233 90.516 61.8393 90.116C62.0553 89.716 62.1633 89.252 62.1633 88.724ZM71.2859 85.328C72.0699 85.328 72.7099 85.572 73.2059 86.06C73.7019 86.54 73.9499 87.24 73.9499 88.16V92H73.1219V88.256C73.1219 87.544 72.9419 87 72.5819 86.624C72.2299 86.248 71.7459 86.06 71.1299 86.06C70.4979 86.06 69.9939 86.26 69.6179 86.66C69.2419 87.06 69.0539 87.648 69.0539 88.424V92H68.2139V85.448H69.0539V86.564C69.2619 86.164 69.5619 85.86 69.9539 85.652C70.3459 85.436 70.7899 85.328 71.2859 85.328ZM78.6757 92.096C78.0597 92.096 77.5037 91.96 77.0077 91.688C76.5197 91.408 76.1317 91.016 75.8437 90.512C75.5637 90 75.4237 89.404 75.4237 88.724C75.4237 88.044 75.5677 87.452 75.8557 86.948C76.1437 86.436 76.5357 86.044 77.0317 85.772C77.5277 85.492 78.0837 85.352 78.6997 85.352C79.3157 85.352 79.8717 85.492 80.3677 85.772C80.8717 86.044 81.2637 86.436 81.5437 86.948C81.8317 87.452 81.9757 88.044 81.9757 88.724C81.9757 89.396 81.8317 89.988 81.5437 90.5C81.2557 91.012 80.8597 91.408 80.3557 91.688C79.8517 91.96 79.2917 92.096 78.6757 92.096ZM78.6757 91.364C79.1077 91.364 79.5077 91.268 79.8757 91.076C80.2437 90.876 80.5397 90.58 80.7637 90.188C80.9957 89.788 81.1117 89.3 81.1117 88.724C81.1117 88.148 80.9997 87.664 80.7757 87.272C80.5517 86.872 80.2557 86.576 79.8877 86.384C79.5197 86.184 79.1197 86.084 78.6877 86.084C78.2557 86.084 77.8557 86.184 77.4877 86.384C77.1197 86.576 76.8237 86.872 76.5997 87.272C76.3837 87.664 76.2757 88.148 76.2757 88.724C76.2757 89.3 76.3837 89.788 76.5997 90.188C76.8237 90.58 77.1157 90.876 77.4757 91.076C77.8437 91.268 78.2437 91.364 78.6757 91.364ZM85.8349 91.184L88.0429 85.448H88.9309L86.3029 92H85.3549L82.7269 85.448H83.6269L85.8349 91.184ZM89.6854 88.712C89.6854 88.04 89.8174 87.452 90.0814 86.948C90.3534 86.436 90.7254 86.044 91.1974 85.772C91.6774 85.492 92.2174 85.352 92.8174 85.352C93.4414 85.352 93.9774 85.496 94.4254 85.784C94.8814 86.072 95.2094 86.44 95.4094 86.888V85.448H96.2494V92H95.4094V90.548C95.2014 90.996 94.8694 91.368 94.4134 91.664C93.9654 91.952 93.4294 92.096 92.8054 92.096C92.2134 92.096 91.6774 91.956 91.1974 91.676C90.7254 91.396 90.3534 91 90.0814 90.488C89.8174 89.976 89.6854 89.384 89.6854 88.712ZM95.4094 88.724C95.4094 88.196 95.3014 87.732 95.0854 87.332C94.8694 86.932 94.5734 86.624 94.1974 86.408C93.8294 86.192 93.4214 86.084 92.9734 86.084C92.5094 86.084 92.0934 86.188 91.7254 86.396C91.3574 86.604 91.0654 86.908 90.8494 87.308C90.6414 87.7 90.5374 88.168 90.5374 88.712C90.5374 89.248 90.6414 89.72 90.8494 90.128C91.0654 90.528 91.3574 90.836 91.7254 91.052C92.0934 91.26 92.5094 91.364 92.9734 91.364C93.4214 91.364 93.8294 91.256 94.1974 91.04C94.5734 90.824 94.8694 90.516 95.0854 90.116C95.3014 89.716 95.4094 89.252 95.4094 88.724ZM107.388 88.388C107.388 88.676 107.38 88.896 107.364 89.048H101.928C101.952 89.544 102.072 89.968 102.288 90.32C102.504 90.672 102.788 90.94 103.14 91.124C103.492 91.3 103.876 91.388 104.292 91.388C104.836 91.388 105.292 91.256 105.66 90.992C106.036 90.728 106.284 90.372 106.404 89.924H107.292C107.132 90.564 106.788 91.088 106.26 91.496C105.74 91.896 105.084 92.096 104.292 92.096C103.676 92.096 103.124 91.96 102.636 91.688C102.148 91.408 101.764 91.016 101.484 90.512C101.212 90 101.076 89.404 101.076 88.724C101.076 88.044 101.212 87.448 101.484 86.936C101.756 86.424 102.136 86.032 102.624 85.76C103.112 85.488 103.668 85.352 104.292 85.352C104.916 85.352 105.46 85.488 105.924 85.76C106.396 86.032 106.756 86.4 107.004 86.864C107.26 87.32 107.388 87.828 107.388 88.388ZM106.536 88.364C106.544 87.876 106.444 87.46 106.236 87.116C106.036 86.772 105.76 86.512 105.408 86.336C105.056 86.16 104.672 86.072 104.256 86.072C103.632 86.072 103.1 86.272 102.66 86.672C102.22 87.072 101.976 87.636 101.928 88.364H106.536ZM112.357 92L110.665 89.36L109.033 92H108.145L110.257 88.724L108.169 85.448H109.117L110.785 88.052L112.405 85.448H113.281L111.193 88.688L113.305 92H112.357ZM115.272 86.888C115.48 86.448 115.808 86.084 116.256 85.796C116.712 85.5 117.252 85.352 117.876 85.352C118.468 85.352 119 85.492 119.472 85.772C119.952 86.044 120.324 86.436 120.588 86.948C120.86 87.452 120.996 88.04 120.996 88.712C120.996 89.384 120.86 89.976 120.588 90.488C120.324 91 119.952 91.396 119.472 91.676C119 91.956 118.468 92.096 117.876 92.096C117.26 92.096 116.724 91.952 116.268 91.664C115.812 91.368 115.48 91 115.272 90.56V95.096H114.444V85.448H115.272V86.888ZM120.144 88.712C120.144 88.168 120.036 87.7 119.82 87.308C119.612 86.908 119.324 86.604 118.956 86.396C118.588 86.188 118.172 86.084 117.708 86.084C117.26 86.084 116.848 86.192 116.472 86.408C116.104 86.624 115.812 86.932 115.596 87.332C115.38 87.732 115.272 88.196 115.272 88.724C115.272 89.252 115.38 89.716 115.596 90.116C115.812 90.516 116.104 90.824 116.472 91.04C116.848 91.256 117.26 91.364 117.708 91.364C118.172 91.364 118.588 91.26 118.956 91.052C119.324 90.836 119.612 90.528 119.82 90.128C120.036 89.72 120.144 89.248 120.144 88.712ZM128.47 88.388C128.47 88.676 128.462 88.896 128.446 89.048H123.01C123.034 89.544 123.154 89.968 123.37 90.32C123.586 90.672 123.87 90.94 124.222 91.124C124.574 91.3 124.958 91.388 125.374 91.388C125.918 91.388 126.374 91.256 126.742 90.992C127.118 90.728 127.366 90.372 127.486 89.924H128.374C128.214 90.564 127.87 91.088 127.342 91.496C126.822 91.896 126.166 92.096 125.374 92.096C124.758 92.096 124.206 91.96 123.718 91.688C123.23 91.408 122.846 91.016 122.566 90.512C122.294 90 122.158 89.404 122.158 88.724C122.158 88.044 122.294 87.448 122.566 86.936C122.838 86.424 123.218 86.032 123.706 85.76C124.194 85.488 124.75 85.352 125.374 85.352C125.998 85.352 126.542 85.488 127.006 85.76C127.478 86.032 127.838 86.4 128.086 86.864C128.342 87.32 128.47 87.828 128.47 88.388ZM127.618 88.364C127.626 87.876 127.526 87.46 127.318 87.116C127.118 86.772 126.842 86.512 126.49 86.336C126.138 86.16 125.754 86.072 125.338 86.072C124.714 86.072 124.182 86.272 123.742 86.672C123.302 87.072 123.058 87.636 123.01 88.364H127.618ZM130.847 86.612C131.031 86.204 131.311 85.888 131.687 85.664C132.071 85.44 132.539 85.328 133.091 85.328V86.204H132.863C132.255 86.204 131.767 86.368 131.399 86.696C131.031 87.024 130.847 87.572 130.847 88.34V92H130.007V85.448H130.847V86.612ZM134.775 84.212C134.607 84.212 134.463 84.152 134.343 84.032C134.223 83.912 134.163 83.764 134.163 83.588C134.163 83.412 134.223 83.268 134.343 83.156C134.463 83.036 134.607 82.976 134.775 82.976C134.943 82.976 135.087 83.036 135.207 83.156C135.327 83.268 135.387 83.412 135.387 83.588C135.387 83.764 135.327 83.912 135.207 84.032C135.087 84.152 134.943 84.212 134.775 84.212ZM135.195 85.448V92H134.355V85.448H135.195ZM143.025 88.388C143.025 88.676 143.017 88.896 143.001 89.048H137.565C137.589 89.544 137.709 89.968 137.925 90.32C138.141 90.672 138.425 90.94 138.777 91.124C139.129 91.3 139.513 91.388 139.929 91.388C140.473 91.388 140.929 91.256 141.297 90.992C141.673 90.728 141.921 90.372 142.041 89.924H142.929C142.769 90.564 142.425 91.088 141.897 91.496C141.377 91.896 140.721 92.096 139.929 92.096C139.313 92.096 138.761 91.96 138.273 91.688C137.785 91.408 137.401 91.016 137.121 90.512C136.849 90 136.713 89.404 136.713 88.724C136.713 88.044 136.849 87.448 137.121 86.936C137.393 86.424 137.773 86.032 138.261 85.76C138.749 85.488 139.305 85.352 139.929 85.352C140.553 85.352 141.097 85.488 141.561 85.76C142.033 86.032 142.393 86.4 142.641 86.864C142.897 87.32 143.025 87.828 143.025 88.388ZM142.173 88.364C142.181 87.876 142.081 87.46 141.873 87.116C141.673 86.772 141.397 86.512 141.045 86.336C140.693 86.16 140.309 86.072 139.893 86.072C139.269 86.072 138.737 86.272 138.297 86.672C137.857 87.072 137.613 87.636 137.565 88.364H142.173ZM139.869 83.744L138.261 84.752V84.068L139.869 83.084L141.477 84.068V84.752L139.869 83.744ZM147.634 85.328C148.418 85.328 149.058 85.572 149.554 86.06C150.05 86.54 150.298 87.24 150.298 88.16V92H149.47V88.256C149.47 87.544 149.29 87 148.93 86.624C148.578 86.248 148.094 86.06 147.478 86.06C146.846 86.06 146.342 86.26 145.966 86.66C145.59 87.06 145.402 87.648 145.402 88.424V92H144.562V85.448H145.402V86.564C145.61 86.164 145.91 85.86 146.302 85.652C146.694 85.436 147.138 85.328 147.634 85.328ZM151.771 88.724C151.771 88.044 151.907 87.452 152.179 86.948C152.451 86.436 152.827 86.044 153.307 85.772C153.787 85.492 154.335 85.352 154.951 85.352C155.759 85.352 156.423 85.552 156.943 85.952C157.471 86.352 157.811 86.896 157.963 87.584H157.063C156.951 87.112 156.707 86.744 156.331 86.48C155.963 86.208 155.503 86.072 154.951 86.072C154.511 86.072 154.115 86.172 153.763 86.372C153.411 86.572 153.131 86.872 152.923 87.272C152.723 87.664 152.623 88.148 152.623 88.724C152.623 89.3 152.723 89.788 152.923 90.188C153.131 90.588 153.411 90.888 153.763 91.088C154.115 91.288 154.511 91.388 154.951 91.388C155.503 91.388 155.963 91.256 156.331 90.992C156.707 90.72 156.951 90.344 157.063 89.864H157.963C157.811 90.536 157.471 91.076 156.943 91.484C156.415 91.892 155.751 92.096 154.951 92.096C154.335 92.096 153.787 91.96 153.307 91.688C152.827 91.408 152.451 91.016 152.179 90.512C151.907 90 151.771 89.404 151.771 88.724ZM159.935 84.212C159.767 84.212 159.623 84.152 159.503 84.032C159.383 83.912 159.323 83.764 159.323 83.588C159.323 83.412 159.383 83.268 159.503 83.156C159.623 83.036 159.767 82.976 159.935 82.976C160.103 82.976 160.247 83.036 160.367 83.156C160.487 83.268 160.547 83.412 160.547 83.588C160.547 83.764 160.487 83.912 160.367 84.032C160.247 84.152 160.103 84.212 159.935 84.212ZM160.355 85.448V92H159.515V85.448H160.355ZM161.873 88.712C161.873 88.04 162.005 87.452 162.269 86.948C162.541 86.436 162.913 86.044 163.385 85.772C163.865 85.492 164.405 85.352 165.005 85.352C165.629 85.352 166.165 85.496 166.613 85.784C167.069 86.072 167.397 86.44 167.597 86.888V85.448H168.437V92H167.597V90.548C167.389 90.996 167.057 91.368 166.601 91.664C166.153 91.952 165.617 92.096 164.993 92.096C164.401 92.096 163.865 91.956 163.385 91.676C162.913 91.396 162.541 91 162.269 90.488C162.005 89.976 161.873 89.384 161.873 88.712ZM167.597 88.724C167.597 88.196 167.489 87.732 167.273 87.332C167.057 86.932 166.761 86.624 166.385 86.408C166.017 86.192 165.609 86.084 165.161 86.084C164.697 86.084 164.281 86.188 163.913 86.396C163.545 86.604 163.253 86.908 163.037 87.308C162.829 87.7 162.725 88.168 162.725 88.712C162.725 89.248 162.829 89.72 163.037 90.128C163.253 90.528 163.545 90.836 163.913 91.052C164.281 91.26 164.697 91.364 165.161 91.364C165.609 91.364 166.017 91.256 166.385 91.04C166.761 90.824 167.057 90.516 167.273 90.116C167.489 89.716 167.597 89.252 167.597 88.724ZM173.264 88.712C173.264 88.04 173.396 87.452 173.66 86.948C173.932 86.436 174.304 86.044 174.776 85.772C175.256 85.492 175.796 85.352 176.396 85.352C177.02 85.352 177.556 85.496 178.004 85.784C178.46 86.072 178.788 86.44 178.988 86.888V85.448H179.828V92H178.988V90.548C178.78 90.996 178.448 91.368 177.992 91.664C177.544 91.952 177.008 92.096 176.384 92.096C175.792 92.096 175.256 91.956 174.776 91.676C174.304 91.396 173.932 91 173.66 90.488C173.396 89.976 173.264 89.384 173.264 88.712ZM178.988 88.724C178.988 88.196 178.88 87.732 178.664 87.332C178.448 86.932 178.152 86.624 177.776 86.408C177.408 86.192 177 86.084 176.552 86.084C176.088 86.084 175.672 86.188 175.304 86.396C174.936 86.604 174.644 86.908 174.428 87.308C174.22 87.7 174.116 88.168 174.116 88.712C174.116 89.248 174.22 89.72 174.428 90.128C174.644 90.528 174.936 90.836 175.304 91.052C175.672 91.26 176.088 91.364 176.552 91.364C177 91.364 177.408 91.256 177.776 91.04C178.152 90.824 178.448 90.516 178.664 90.116C178.88 89.716 178.988 89.252 178.988 88.724ZM190.714 85.448V92H189.874V90.848C189.682 91.256 189.386 91.568 188.986 91.784C188.586 92 188.138 92.108 187.642 92.108C186.858 92.108 186.218 91.868 185.722 91.388C185.226 90.9 184.978 90.196 184.978 89.276V85.448H185.806V89.18C185.806 89.892 185.982 90.436 186.334 90.812C186.694 91.188 187.182 91.376 187.798 91.376C188.43 91.376 188.934 91.176 189.31 90.776C189.686 90.376 189.874 89.788 189.874 89.012V85.448H190.714ZM200.432 85.328C201.2 85.328 201.824 85.572 202.304 86.06C202.792 86.54 203.036 87.24 203.036 88.16V92H202.208V88.256C202.208 87.544 202.036 87 201.692 86.624C201.348 86.248 200.88 86.06 200.288 86.06C199.672 86.06 199.18 86.264 198.812 86.672C198.444 87.08 198.26 87.672 198.26 88.448V92H197.432V88.256C197.432 87.544 197.26 87 196.916 86.624C196.572 86.248 196.1 86.06 195.5 86.06C194.884 86.06 194.392 86.264 194.024 86.672C193.656 87.08 193.472 87.672 193.472 88.448V92H192.632V85.448H193.472V86.576C193.68 86.168 193.976 85.86 194.36 85.652C194.744 85.436 195.172 85.328 195.644 85.328C196.212 85.328 196.708 85.464 197.132 85.736C197.564 86.008 197.876 86.408 198.068 86.936C198.244 86.416 198.544 86.02 198.968 85.748C199.4 85.468 199.888 85.328 200.432 85.328ZM207.81 88.724C207.81 88.044 207.946 87.452 208.218 86.948C208.49 86.436 208.866 86.044 209.346 85.772C209.826 85.492 210.374 85.352 210.99 85.352C211.798 85.352 212.462 85.552 212.982 85.952C213.51 86.352 213.85 86.896 214.002 87.584H213.102C212.99 87.112 212.746 86.744 212.37 86.48C212.002 86.208 211.542 86.072 210.99 86.072C210.55 86.072 210.154 86.172 209.802 86.372C209.45 86.572 209.17 86.872 208.962 87.272C208.762 87.664 208.662 88.148 208.662 88.724C208.662 89.3 208.762 89.788 208.962 90.188C209.17 90.588 209.45 90.888 209.802 91.088C210.154 91.288 210.55 91.388 210.99 91.388C211.542 91.388 212.002 91.256 212.37 90.992C212.746 90.72 212.99 90.344 213.102 89.864H214.002C213.85 90.536 213.51 91.076 212.982 91.484C212.454 91.892 211.79 92.096 210.99 92.096C210.374 92.096 209.826 91.96 209.346 91.688C208.866 91.408 208.49 91.016 208.218 90.512C207.946 90 207.81 89.404 207.81 88.724ZM216.394 83.12V92H215.554V83.12H216.394ZM218.716 84.212C218.548 84.212 218.404 84.152 218.284 84.032C218.164 83.912 218.104 83.764 218.104 83.588C218.104 83.412 218.164 83.268 218.284 83.156C218.404 83.036 218.548 82.976 218.716 82.976C218.884 82.976 219.028 83.036 219.148 83.156C219.268 83.268 219.328 83.412 219.328 83.588C219.328 83.764 219.268 83.912 219.148 84.032C219.028 84.152 218.884 84.212 218.716 84.212ZM219.136 85.448V92H218.296V85.448H219.136ZM220.654 88.712C220.654 88.04 220.79 87.452 221.062 86.948C221.334 86.436 221.706 86.044 222.178 85.772C222.658 85.492 223.198 85.352 223.798 85.352C224.414 85.352 224.95 85.5 225.406 85.796C225.862 86.084 226.186 86.448 226.378 86.888V85.448H227.218V95.096H226.378V90.56C226.186 91 225.858 91.368 225.394 91.664C224.938 91.952 224.398 92.096 223.774 92.096C223.182 92.096 222.646 91.956 222.166 91.676C221.694 91.396 221.322 91 221.05 90.488C220.786 89.976 220.654 89.384 220.654 88.712ZM226.378 88.724C226.378 88.196 226.27 87.732 226.054 87.332C225.838 86.932 225.542 86.624 225.166 86.408C224.798 86.192 224.39 86.084 223.942 86.084C223.478 86.084 223.062 86.188 222.694 86.396C222.326 86.604 222.034 86.908 221.818 87.308C221.61 87.7 221.506 88.168 221.506 88.712C221.506 89.248 221.61 89.72 221.818 90.128C222.034 90.528 222.326 90.836 222.694 91.052C223.062 91.26 223.478 91.364 223.942 91.364C224.39 91.364 224.798 91.256 225.166 91.04C225.542 90.824 225.838 90.516 226.054 90.116C226.27 89.716 226.378 89.252 226.378 88.724ZM234.812 85.448V92H233.972V90.848C233.78 91.256 233.484 91.568 233.084 91.784C232.684 92 232.236 92.108 231.74 92.108C230.956 92.108 230.316 91.868 229.82 91.388C229.324 90.9 229.076 90.196 229.076 89.276V85.448H229.904V89.18C229.904 89.892 230.08 90.436 230.432 90.812C230.792 91.188 231.28 91.376 231.896 91.376C232.528 91.376 233.032 91.176 233.408 90.776C233.784 90.376 233.972 89.788 233.972 89.012V85.448H234.812ZM242.658 88.388C242.658 88.676 242.65 88.896 242.634 89.048H237.198C237.222 89.544 237.342 89.968 237.558 90.32C237.774 90.672 238.058 90.94 238.41 91.124C238.762 91.3 239.146 91.388 239.562 91.388C240.106 91.388 240.562 91.256 240.93 90.992C241.306 90.728 241.554 90.372 241.674 89.924H242.562C242.402 90.564 242.058 91.088 241.53 91.496C241.01 91.896 240.354 92.096 239.562 92.096C238.946 92.096 238.394 91.96 237.906 91.688C237.418 91.408 237.034 91.016 236.754 90.512C236.482 90 236.346 89.404 236.346 88.724C236.346 88.044 236.482 87.448 236.754 86.936C237.026 86.424 237.406 86.032 237.894 85.76C238.382 85.488 238.938 85.352 239.562 85.352C240.186 85.352 240.73 85.488 241.194 85.76C241.666 86.032 242.026 86.4 242.274 86.864C242.53 87.32 242.658 87.828 242.658 88.388ZM241.806 88.364C241.814 87.876 241.714 87.46 241.506 87.116C241.306 86.772 241.03 86.512 240.678 86.336C240.326 86.16 239.942 86.072 239.526 86.072C238.902 86.072 238.37 86.272 237.93 86.672C237.49 87.072 237.246 87.636 237.198 88.364H241.806Z" fill="#677279"/>
<line y1="88.5" x2="32.0156" y2="88.5" stroke="#677279"/>
<line x1="247" y1="88.5" x2="279.016" y2="88.5" stroke="#677279"/>
</svg>
