<svg width="439" height="439" viewBox="0 0 439 439" fill="none" xmlns="http://www.w3.org/2000/svg">
<path d="M10.0073 210.018L220.371 10.4007C222.775 8.11976 226.572 8.21929 228.853 10.623L428.471 220.987C430.752 223.39 430.652 227.188 428.248 229.469L217.885 429.087C215.481 431.367 211.683 431.268 209.402 428.864L9.78494 218.501C7.50399 216.097 7.60353 212.299 10.0073 210.018Z" fill="#FEE81F" stroke="black" stroke-width="8"/>
<path d="M131.721 201.705H119.211V193.058H131.721C133.566 193.058 135.048 192.75 136.164 192.135C137.303 191.52 138.135 190.676 138.659 189.605C139.206 188.512 139.479 187.281 139.479 185.914C139.479 184.501 139.206 183.191 138.659 181.983C138.135 180.753 137.303 179.762 136.164 179.01C135.048 178.258 133.566 177.882 131.721 177.882H123.244V219H112.102V169.234H131.721C135.686 169.234 139.081 169.952 141.906 171.388C144.755 172.823 146.931 174.794 148.435 177.301C149.961 179.785 150.725 182.633 150.725 185.846C150.725 189.059 149.961 191.85 148.435 194.22C146.931 196.59 144.755 198.435 141.906 199.757C139.081 201.056 135.686 201.705 131.721 201.705ZM176.12 210.182V194.322C176.12 193.206 175.949 192.249 175.607 191.451C175.266 190.654 174.73 190.027 174.001 189.571C173.272 189.116 172.326 188.888 171.164 188.888C170.184 188.888 169.33 189.059 168.601 189.4C167.894 189.742 167.347 190.232 166.96 190.87C166.595 191.508 166.413 192.294 166.413 193.229H155.749C155.749 191.565 156.125 190.016 156.877 188.58C157.629 187.145 158.7 185.88 160.09 184.786C161.503 183.692 163.189 182.849 165.148 182.257C167.108 181.642 169.307 181.334 171.745 181.334C174.639 181.334 177.214 181.824 179.47 182.804C181.748 183.761 183.549 185.208 184.87 187.145C186.192 189.059 186.853 191.474 186.853 194.391V209.874C186.853 212.107 186.978 213.862 187.229 215.138C187.502 216.391 187.889 217.485 188.391 218.419V219H177.624C177.123 217.929 176.747 216.607 176.496 215.035C176.245 213.44 176.12 211.822 176.12 210.182ZM177.453 196.441L177.521 202.32H172.224C171.039 202.32 170.013 202.468 169.147 202.765C168.304 203.061 167.621 203.471 167.097 203.995C166.573 204.496 166.185 205.089 165.935 205.772C165.707 206.433 165.593 207.162 165.593 207.96C165.593 208.712 165.775 209.396 166.14 210.011C166.504 210.603 167.006 211.07 167.644 211.412C168.282 211.754 169.022 211.925 169.865 211.925C171.255 211.925 172.44 211.651 173.42 211.104C174.423 210.558 175.197 209.897 175.744 209.122C176.291 208.325 176.564 207.584 176.564 206.9L179.128 211.344C178.718 212.255 178.216 213.201 177.624 214.181C177.032 215.138 176.28 216.038 175.368 216.881C174.457 217.701 173.352 218.373 172.053 218.897C170.777 219.422 169.239 219.684 167.438 219.684C165.114 219.684 163.007 219.216 161.115 218.282C159.224 217.325 157.709 216.015 156.569 214.352C155.453 212.688 154.895 210.774 154.895 208.609C154.895 206.673 155.248 204.952 155.954 203.448C156.66 201.944 157.72 200.668 159.133 199.62C160.568 198.572 162.368 197.786 164.533 197.262C166.698 196.715 169.227 196.441 172.121 196.441H177.453ZM204.558 190.631V219H193.894V182.018H203.908L204.558 190.631ZM215.598 181.744L215.427 191.69C214.971 191.622 214.379 191.565 213.649 191.52C212.92 191.451 212.294 191.417 211.77 191.417C210.402 191.417 209.217 191.588 208.215 191.93C207.235 192.249 206.415 192.727 205.754 193.365C205.116 194.003 204.637 194.801 204.318 195.758C203.999 196.692 203.84 197.774 203.84 199.005L201.823 198.014C201.823 195.576 202.062 193.342 202.541 191.314C203.02 189.286 203.715 187.532 204.626 186.051C205.537 184.547 206.654 183.385 207.976 182.564C209.297 181.744 210.801 181.334 212.487 181.334C213.034 181.334 213.592 181.368 214.162 181.437C214.732 181.505 215.21 181.607 215.598 181.744ZM238.464 210.182V194.322C238.464 193.206 238.293 192.249 237.951 191.451C237.609 190.654 237.074 190.027 236.345 189.571C235.616 189.116 234.67 188.888 233.508 188.888C232.528 188.888 231.674 189.059 230.944 189.4C230.238 189.742 229.691 190.232 229.304 190.87C228.939 191.508 228.757 192.294 228.757 193.229H218.093C218.093 191.565 218.469 190.016 219.221 188.58C219.973 187.145 221.044 185.88 222.434 184.786C223.846 183.692 225.533 182.849 227.492 182.257C229.452 181.642 231.651 181.334 234.089 181.334C236.983 181.334 239.558 181.824 241.813 182.804C244.092 183.761 245.892 185.208 247.214 187.145C248.535 189.059 249.196 191.474 249.196 194.391V209.874C249.196 212.107 249.322 213.862 249.572 215.138C249.846 216.391 250.233 217.485 250.734 218.419V219H239.968C239.466 217.929 239.09 216.607 238.84 215.035C238.589 213.44 238.464 211.822 238.464 210.182ZM239.797 196.441L239.865 202.32H234.567C233.382 202.32 232.357 202.468 231.491 202.765C230.648 203.061 229.965 203.471 229.44 203.995C228.916 204.496 228.529 205.089 228.278 205.772C228.05 206.433 227.937 207.162 227.937 207.96C227.937 208.712 228.119 209.396 228.483 210.011C228.848 210.603 229.349 211.07 229.987 211.412C230.625 211.754 231.366 211.925 232.209 211.925C233.599 211.925 234.784 211.651 235.764 211.104C236.766 210.558 237.541 209.897 238.088 209.122C238.635 208.325 238.908 207.584 238.908 206.9L241.472 211.344C241.062 212.255 240.56 213.201 239.968 214.181C239.375 215.138 238.623 216.038 237.712 216.881C236.8 217.701 235.695 218.373 234.396 218.897C233.12 219.422 231.582 219.684 229.782 219.684C227.458 219.684 225.35 219.216 223.459 218.282C221.568 217.325 220.052 216.015 218.913 214.352C217.797 212.688 217.238 210.774 217.238 208.609C217.238 206.673 217.591 204.952 218.298 203.448C219.004 201.944 220.064 200.668 221.477 199.62C222.912 198.572 224.712 197.786 226.877 197.262C229.042 196.715 231.571 196.441 234.465 196.441H239.797ZM277.736 210.729V166.5H288.469V219H278.83L277.736 210.729ZM254.699 200.953V200.235C254.699 197.433 255.007 194.881 255.622 192.579C256.26 190.255 257.183 188.261 258.391 186.598C259.621 184.911 261.136 183.613 262.937 182.701C264.737 181.79 266.799 181.334 269.123 181.334C271.265 181.334 273.133 181.812 274.729 182.77C276.324 183.704 277.679 185.025 278.796 186.734C279.935 188.421 280.858 190.414 281.564 192.716C282.271 194.994 282.806 197.467 283.171 200.133V201.363C282.829 203.915 282.294 206.297 281.564 208.507C280.858 210.717 279.935 212.665 278.796 214.352C277.679 216.015 276.312 217.325 274.694 218.282C273.099 219.216 271.219 219.684 269.055 219.684C266.73 219.684 264.668 219.216 262.868 218.282C261.091 217.348 259.598 216.038 258.391 214.352C257.183 212.665 256.26 210.683 255.622 208.404C255.007 206.126 254.699 203.642 254.699 200.953ZM265.363 200.235V200.953C265.363 202.411 265.466 203.767 265.671 205.021C265.899 206.274 266.263 207.379 266.765 208.336C267.266 209.293 267.927 210.045 268.747 210.592C269.567 211.116 270.57 211.378 271.755 211.378C273.35 211.378 274.66 211.013 275.686 210.284C276.711 209.532 277.486 208.495 278.01 207.174C278.534 205.852 278.807 204.314 278.83 202.56V198.971C278.83 197.512 278.682 196.202 278.386 195.04C278.09 193.878 277.645 192.898 277.053 192.101C276.483 191.303 275.765 190.699 274.899 190.289C274.034 189.856 273.008 189.64 271.823 189.64C270.661 189.64 269.67 189.913 268.85 190.46C268.029 190.984 267.357 191.725 266.833 192.682C266.332 193.639 265.956 194.767 265.705 196.065C265.477 197.341 265.363 198.731 265.363 200.235ZM315.163 210.182V194.322C315.163 193.206 314.992 192.249 314.65 191.451C314.309 190.654 313.773 190.027 313.044 189.571C312.315 189.116 311.369 188.888 310.207 188.888C309.227 188.888 308.373 189.059 307.644 189.4C306.937 189.742 306.39 190.232 306.003 190.87C305.638 191.508 305.456 192.294 305.456 193.229H294.792C294.792 191.565 295.168 190.016 295.92 188.58C296.672 187.145 297.743 185.88 299.133 184.786C300.546 183.692 302.232 182.849 304.191 182.257C306.151 181.642 308.35 181.334 310.788 181.334C313.682 181.334 316.257 181.824 318.513 182.804C320.791 183.761 322.591 185.208 323.913 187.145C325.235 189.059 325.896 191.474 325.896 194.391V209.874C325.896 212.107 326.021 213.862 326.271 215.138C326.545 216.391 326.932 217.485 327.434 218.419V219H316.667C316.166 217.929 315.79 216.607 315.539 215.035C315.288 213.44 315.163 211.822 315.163 210.182ZM316.496 196.441L316.564 202.32H311.267C310.082 202.32 309.056 202.468 308.19 202.765C307.347 203.061 306.664 203.471 306.14 203.995C305.616 204.496 305.228 205.089 304.978 205.772C304.75 206.433 304.636 207.162 304.636 207.96C304.636 208.712 304.818 209.396 305.183 210.011C305.547 210.603 306.049 211.07 306.687 211.412C307.325 211.754 308.065 211.925 308.908 211.925C310.298 211.925 311.483 211.651 312.463 211.104C313.465 210.558 314.24 209.897 314.787 209.122C315.334 208.325 315.607 207.584 315.607 206.9L318.171 211.344C317.761 212.255 317.259 213.201 316.667 214.181C316.075 215.138 315.323 216.038 314.411 216.881C313.5 217.701 312.395 218.373 311.096 218.897C309.82 219.422 308.282 219.684 306.481 219.684C304.157 219.684 302.049 219.216 300.158 218.282C298.267 217.325 296.752 216.015 295.612 214.352C294.496 212.688 293.938 210.774 293.938 208.609C293.938 206.673 294.291 204.952 294.997 203.448C295.703 201.944 296.763 200.668 298.176 199.62C299.611 198.572 301.411 197.786 303.576 197.262C305.741 196.715 308.27 196.441 311.164 196.441H316.496Z" fill="black" fill-opacity="0.9"/>
<path d="M166.775 260.797H177.533C177.356 264.117 176.449 267.05 174.811 269.596C173.195 272.119 170.948 274.1 168.07 275.539C165.193 276.956 161.773 277.664 157.811 277.664C154.645 277.664 151.812 277.122 149.311 276.037C146.809 274.952 144.684 273.403 142.936 271.389C141.209 269.352 139.881 266.906 138.951 264.051C138.044 261.173 137.59 257.93 137.59 254.322V251.367C137.59 247.759 138.066 244.516 139.018 241.639C139.969 238.761 141.331 236.304 143.102 234.268C144.872 232.231 146.997 230.671 149.477 229.586C151.956 228.501 154.723 227.959 157.777 227.959C161.895 227.959 165.37 228.701 168.203 230.184C171.036 231.667 173.228 233.703 174.777 236.293C176.349 238.883 177.29 241.838 177.6 245.158H166.809C166.72 243.277 166.366 241.694 165.746 240.41C165.126 239.104 164.174 238.119 162.891 237.455C161.607 236.791 159.902 236.459 157.777 236.459C156.228 236.459 154.867 236.747 153.693 237.322C152.542 237.898 151.579 238.794 150.805 240.012C150.052 241.229 149.488 242.779 149.111 244.66C148.735 246.52 148.547 248.733 148.547 251.301V254.322C148.547 256.868 148.713 259.07 149.045 260.93C149.377 262.789 149.908 264.327 150.639 265.545C151.391 266.762 152.354 267.67 153.527 268.268C154.701 268.865 156.128 269.164 157.811 269.164C159.736 269.164 161.341 268.865 162.625 268.268C163.909 267.648 164.894 266.718 165.58 265.479C166.266 264.239 166.665 262.678 166.775 260.797ZM199.945 277.664C197.09 277.664 194.533 277.21 192.275 276.303C190.018 275.395 188.103 274.145 186.531 272.551C184.982 270.935 183.798 269.076 182.979 266.973C182.16 264.87 181.75 262.623 181.75 260.232V258.971C181.75 256.292 182.126 253.824 182.879 251.566C183.632 249.309 184.727 247.35 186.166 245.689C187.627 244.007 189.42 242.712 191.545 241.805C193.67 240.875 196.094 240.41 198.816 240.41C201.362 240.41 203.631 240.831 205.623 241.672C207.615 242.491 209.298 243.675 210.67 245.225C212.042 246.752 213.083 248.6 213.791 250.77C214.521 252.917 214.887 255.329 214.887 258.008V262.258H185.934V255.584H204.727V254.787C204.727 253.525 204.494 252.419 204.029 251.467C203.587 250.515 202.923 249.785 202.037 249.275C201.174 248.744 200.078 248.479 198.75 248.479C197.488 248.479 196.437 248.744 195.596 249.275C194.755 249.807 194.079 250.559 193.57 251.533C193.083 252.485 192.729 253.603 192.508 254.887C192.286 256.148 192.176 257.51 192.176 258.971V260.232C192.176 261.627 192.364 262.9 192.74 264.051C193.117 265.202 193.67 266.187 194.4 267.006C195.131 267.825 196.016 268.467 197.057 268.932C198.097 269.396 199.281 269.629 200.609 269.629C202.247 269.629 203.808 269.319 205.291 268.699C206.774 268.057 208.058 267.061 209.143 265.711L213.99 271.256C213.26 272.318 212.23 273.348 210.902 274.344C209.596 275.318 208.025 276.115 206.188 276.734C204.35 277.354 202.27 277.664 199.945 277.664ZM230.326 249.441V277H219.967V241.074H229.695L230.326 249.441ZM241.051 240.809L240.885 250.471C240.442 250.404 239.867 250.349 239.158 250.305C238.45 250.238 237.841 250.205 237.332 250.205C236.004 250.205 234.853 250.371 233.879 250.703C232.927 251.013 232.13 251.478 231.488 252.098C230.868 252.717 230.404 253.492 230.094 254.422C229.784 255.329 229.629 256.381 229.629 257.576L227.67 256.613C227.67 254.245 227.902 252.076 228.367 250.105C228.832 248.135 229.507 246.431 230.393 244.992C231.278 243.531 232.363 242.402 233.646 241.605C234.93 240.809 236.391 240.41 238.029 240.41C238.561 240.41 239.103 240.443 239.656 240.51C240.21 240.576 240.674 240.676 241.051 240.809ZM265.223 241.074V248.346H243.906V241.074H265.223ZM248.787 232.176H259.18V265.744C259.18 266.74 259.301 267.504 259.545 268.035C259.788 268.566 260.187 268.943 260.74 269.164C261.294 269.363 262.002 269.463 262.865 269.463C263.485 269.463 264.016 269.441 264.459 269.396C264.902 269.352 265.311 269.297 265.688 269.23V276.734C264.802 277.022 263.861 277.243 262.865 277.398C261.869 277.576 260.785 277.664 259.611 277.664C257.376 277.664 255.439 277.299 253.801 276.568C252.185 275.838 250.945 274.687 250.082 273.115C249.219 271.521 248.787 269.452 248.787 266.906V232.176ZM289.229 268.434V253.027C289.229 251.943 289.062 251.013 288.73 250.238C288.398 249.464 287.878 248.855 287.17 248.412C286.462 247.969 285.543 247.748 284.414 247.748C283.462 247.748 282.632 247.914 281.924 248.246C281.238 248.578 280.706 249.054 280.33 249.674C279.976 250.294 279.799 251.057 279.799 251.965H269.439C269.439 250.349 269.805 248.844 270.535 247.449C271.266 246.055 272.306 244.826 273.656 243.764C275.029 242.701 276.667 241.882 278.57 241.307C280.474 240.709 282.61 240.41 284.979 240.41C287.79 240.41 290.291 240.886 292.482 241.838C294.696 242.768 296.445 244.173 297.729 246.055C299.012 247.914 299.654 250.26 299.654 253.094V268.135C299.654 270.304 299.776 272.008 300.02 273.248C300.285 274.465 300.661 275.528 301.148 276.436V277H290.689C290.202 275.96 289.837 274.676 289.594 273.148C289.35 271.599 289.229 270.027 289.229 268.434ZM290.523 255.086L290.59 260.797H285.443C284.292 260.797 283.296 260.941 282.455 261.229C281.636 261.516 280.972 261.915 280.463 262.424C279.954 262.911 279.577 263.486 279.334 264.15C279.113 264.792 279.002 265.501 279.002 266.275C279.002 267.006 279.179 267.67 279.533 268.268C279.887 268.843 280.374 269.297 280.994 269.629C281.614 269.961 282.333 270.127 283.152 270.127C284.503 270.127 285.654 269.861 286.605 269.33C287.579 268.799 288.332 268.157 288.863 267.404C289.395 266.63 289.66 265.91 289.66 265.246L292.15 269.562C291.752 270.448 291.265 271.367 290.689 272.318C290.114 273.248 289.383 274.122 288.498 274.941C287.613 275.738 286.539 276.391 285.277 276.9C284.038 277.41 282.544 277.664 280.795 277.664C278.537 277.664 276.49 277.21 274.652 276.303C272.815 275.373 271.343 274.1 270.236 272.484C269.152 270.868 268.609 269.009 268.609 266.906C268.609 265.025 268.952 263.354 269.639 261.893C270.325 260.432 271.354 259.192 272.727 258.174C274.121 257.156 275.87 256.392 277.973 255.883C280.076 255.352 282.533 255.086 285.344 255.086H290.523Z" fill="black"/>
</svg>
